<?xml version="1.0" standalone="no"?>
<!DOCTYPE svg PUBLIC "-//W3C//DTD SVG 20010904//EN"
 "http://www.w3.org/TR/2001/REC-SVG-20010904/DTD/svg10.dtd">
<svg version="1.0" xmlns="http://www.w3.org/2000/svg"
 width="256.000000pt" height="256.000000pt" viewBox="0 0 256.000000 256.000000"
 preserveAspectRatio="xMidYMid meet">

<g transform="translate(0.000000,256.000000) scale(0.100000,-0.100000)"
fill="#000000" stroke="none">
<path d="M830 2465 c-83 -26 -161 -114 -184 -207 -4 -18 -13 -28 -25 -28 -32
0 -97 -56 -121 -105 -20 -40 -22 -58 -18 -140 3 -85 7 -99 34 -137 17 -24 49
-52 77 -66 43 -23 47 -28 47 -62 0 -74 28 -140 84 -196 70 -69 119 -84 278
-84 l118 0 0 -40 0 -40 -156 0 c-94 0 -173 -5 -198 -12 -52 -15 -138 -100
-152 -148 l-10 -35 -122 -3 -123 -3 3 83 3 82 35 10 c48 14 133 100 148 152 7
23 12 67 12 98 l0 56 -39 0 -39 0 -4 -70 c-6 -110 -58 -165 -158 -165 -100 0
-152 55 -158 165 l-4 70 -39 0 -39 0 0 -56 c0 -31 5 -75 12 -98 15 -52 100
-138 148 -152 l35 -10 5 -102 c7 -139 3 -136 182 -142 l142 -5 10 -35 c13 -45
101 -133 146 -146 l35 -10 5 -94 5 -95 42 -23 c35 -19 44 -31 59 -75 9 -29 21
-58 27 -65 6 -8 39 -12 98 -12 l89 0 0 -45 c0 -50 19 -40 -162 -85 -80 -20
-89 -21 -110 -6 -15 11 -44 16 -91 16 -59 0 -71 -3 -92 -25 -24 -23 -25 -31
-25 -135 0 -104 1 -112 25 -135 21 -22 33 -25 95 -25 62 0 74 3 95 25 14 13
25 31 25 40 0 13 46 15 400 15 354 0 400 -2 400 -15 0 -9 11 -27 25 -40 21
-22 33 -25 95 -25 62 0 74 3 95 25 24 23 25 31 25 135 0 104 -1 112 -25 135
-21 22 -33 25 -92 25 -47 0 -76 -5 -91 -16 -22 -15 -31 -14 -141 15 -66 17
-122 31 -125 31 -3 0 -6 20 -6 45 l0 45 89 0 c59 0 92 4 98 13 6 6 18 35 27
64 15 44 24 56 59 75 l42 23 5 95 5 94 35 10 c45 13 133 101 146 146 l10 35
142 5 c179 6 175 3 182 142 l5 102 35 10 c48 14 133 100 148 152 7 23 12 67
12 98 l0 56 -39 0 -39 0 -4 -70 c-6 -110 -58 -165 -158 -165 -100 0 -152 55
-158 165 l-4 70 -39 0 -39 0 0 -56 c0 -31 5 -75 12 -98 15 -52 100 -138 148
-152 l35 -10 3 -82 3 -83 -123 3 -122 3 -10 35 c-14 48 -100 133 -152 148 -25
7 -104 12 -198 12 l-156 0 0 40 0 40 118 0 c159 0 208 15 278 84 56 56 84 122
84 196 0 34 4 39 47 62 28 14 60 42 77 66 26 36 30 53 34 124 2 47 -1 102 -7
126 -14 52 -79 120 -121 129 -22 4 -32 13 -37 32 -22 94 -101 181 -187 206
-70 21 -828 21 -896 0z m913 -94 c21 -13 50 -42 65 -64 l27 -41 0 -306 0 -306
-27 -41 c-15 -22 -44 -51 -65 -64 l-38 -24 -425 0 -425 0 -38 24 c-21 13 -50
42 -65 64 l-27 40 -3 283 c-2 185 1 297 8 324 13 49 76 115 122 129 19 6 202
9 443 8 l410 -2 38 -24z m-1103 -371 c0 -82 -4 -150 -8 -150 -5 0 -21 14 -38
31 -28 29 -29 35 -29 119 0 84 1 90 29 119 17 17 33 31 38 31 4 0 8 -67 8
-150z m1326 119 c28 -29 29 -35 29 -119 0 -84 -1 -90 -29 -119 -17 -17 -33
-31 -38 -31 -4 0 -8 68 -8 150 0 83 4 150 8 150 5 0 21 -14 38 -31z m-606
-719 l0 -40 -80 0 -80 0 0 40 0 40 80 0 80 0 0 -40z m320 -300 l0 -180 -40 0
-40 0 0 -40 0 -40 40 0 40 0 0 -47 c0 -45 -2 -49 -37 -68 -29 -16 -40 -31 -53
-70 l-17 -50 -293 0 -293 0 -17 50 c-13 39 -24 54 -53 70 -35 19 -37 23 -37
68 l0 47 40 0 40 0 0 40 0 40 -40 0 -40 0 0 180 0 180 400 0 400 0 0 -180z
m-880 20 c0 -172 -4 -178 -70 -112 -42 42 -57 89 -45 149 7 40 71 113 99 113
14 0 16 -18 16 -150z m1030 112 c66 -66 66 -158 0 -224 -66 -66 -70 -60 -70
112 0 172 4 178 70 112z m-470 -752 l0 -40 -80 0 -80 0 0 40 0 40 80 0 80 0 0
-40z m143 -146 c188 -47 177 -42 177 -69 l0 -25 -400 0 -400 0 0 25 c0 14 3
25 8 25 4 0 66 16 137 35 174 45 324 48 478 9z m-703 -94 l0 -80 -40 0 -40 0
0 80 0 80 40 0 40 0 0 -80z m1040 0 l0 -80 -40 0 -40 0 0 80 0 80 40 0 40 0 0
-80z"/>
<path d="M875 2310 c-11 -4 -31 -20 -45 -35 l-25 -27 0 -289 0 -289 33 -32 32
-33 410 0 410 0 32 33 33 32 0 291 0 291 -37 34 -38 34 -392 -1 c-216 0 -402
-4 -413 -9z m793 -82 c17 -17 17 -519 0 -536 -17 -17 -759 -17 -776 0 -17 17
-17 519 0 536 17 17 759 17 776 0z"/>
<path d="M1035 2071 c-45 -20 -70 -60 -70 -112 0 -42 5 -53 33 -81 28 -28 39
-33 82 -33 43 0 54 5 82 33 28 28 33 39 33 82 0 42 -5 54 -31 81 -33 33 -92
46 -129 30z m75 -86 c26 -32 -13 -81 -47 -59 -35 22 -23 74 17 74 10 0 23 -7
30 -15z"/>
<path d="M1435 2070 c-44 -18 -70 -59 -70 -111 0 -42 5 -53 33 -81 28 -28 39
-33 82 -33 43 0 54 5 82 33 29 28 33 39 33 83 0 46 -4 54 -37 85 -39 35 -78
43 -123 24z m75 -85 c26 -32 -13 -81 -47 -59 -35 22 -23 74 17 74 10 0 23 -7
30 -15z"/>
<path d="M1080 1160 l0 -40 40 0 40 0 0 40 0 40 -40 0 -40 0 0 -40z"/>
<path d="M1240 1160 l0 -40 40 0 40 0 0 40 0 40 -40 0 -40 0 0 -40z"/>
<path d="M1400 1160 l0 -40 40 0 40 0 0 40 0 40 -40 0 -40 0 0 -40z"/>
<path d="M1052 1028 c-17 -17 -17 -319 0 -336 17 -17 439 -17 456 0 17 17 17
319 0 336 -17 17 -439 17 -456 0z m388 -168 l0 -100 -160 0 -160 0 0 100 0
100 160 0 160 0 0 -100z"/>
<path d="M278 1793 c-2 -4 -3 -21 -3 -38 0 -28 2 -30 40 -30 39 0 40 1 40 35
0 33 -2 35 -37 38 -20 2 -38 -1 -40 -5z"/>
<path d="M2200 1760 l0 -40 40 0 40 0 0 40 0 40 -40 0 -40 0 0 -40z"/>
</g>
</svg>
